<svg width="688" height="183" viewBox="0 0 688 183" fill="none" xmlns="http://www.w3.org/2000/svg">
<g filter="url(#filter0_d_7_29)">
<circle cx="84.5" cy="81.5" r="78.5" fill="url(#paint0_linear_7_29)" shape-rendering="crispEdges"/>
</g>
<circle cx="50.9979" cy="50.5221" r="11.6796" fill="white"/>
<circle cx="50.9979" cy="81.2579" r="11.6796" fill="white"/>
<circle cx="50.9979" cy="111.994" r="11.6796" fill="white"/>
<line x1="77.7381" y1="48.3706" x2="125.071" y2="48.3706" stroke="white" stroke-width="9.22075" stroke-linecap="round"/>
<line x1="77.7381" y1="80.3358" x2="125.071" y2="80.3358" stroke="white" stroke-width="9.22075" stroke-linecap="round"/>
<line x1="77.7381" y1="111.686" x2="125.071" y2="111.686" stroke="white" stroke-width="9.22075" stroke-linecap="round"/>
<path d="M227 82.68C223.92 82.68 221.097 82.3067 218.53 81.56C215.963 80.8133 213.653 79.67 211.6 78.13L213.28 73.44C214.727 74.42 216.15 75.2133 217.55 75.82C218.95 76.4267 220.397 76.87 221.89 77.15C223.43 77.43 225.017 77.57 226.65 77.57C230.103 77.57 232.693 76.6833 234.42 74.91C236.147 73.1367 237.01 70.6167 237.01 67.35V57.48H237.71C236.963 60.14 235.423 62.2633 233.09 63.85C230.803 65.39 228.097 66.16 224.97 66.16C221.797 66.16 219.02 65.46 216.64 64.06C214.307 62.6133 212.487 60.5833 211.18 57.97C209.873 55.31 209.22 52.2067 209.22 48.66C209.22 45.0667 209.873 41.9633 211.18 39.35C212.487 36.7367 214.307 34.73 216.64 33.33C219.02 31.8833 221.797 31.16 224.97 31.16C228.097 31.16 230.803 31.93 233.09 33.47C235.377 35.01 236.893 37.1333 237.64 39.84L237.01 39.21L237.64 31.79H243.8C243.66 33.19 243.52 34.59 243.38 35.99C243.287 37.39 243.24 38.7667 243.24 40.12V66.58C243.24 71.8067 241.863 75.7967 239.11 78.55C236.403 81.3033 232.367 82.68 227 82.68ZM226.37 61.12C229.59 61.12 232.157 60.0233 234.07 57.83C235.983 55.6367 236.94 52.58 236.94 48.66C236.94 44.6933 235.983 41.6367 234.07 39.49C232.157 37.3433 229.59 36.27 226.37 36.27C223.103 36.27 220.49 37.3433 218.53 39.49C216.617 41.6367 215.66 44.6933 215.66 48.66C215.66 52.58 216.617 55.6367 218.53 57.83C220.49 60.0233 223.103 61.12 226.37 61.12ZM269.938 67.63C264.338 67.63 259.905 66.02 256.638 62.8C253.418 59.58 251.808 55.1467 251.808 49.5C251.808 45.7667 252.508 42.5467 253.908 39.84C255.355 37.0867 257.338 34.9633 259.858 33.47C262.378 31.93 265.318 31.16 268.678 31.16C271.898 31.16 274.628 31.86 276.868 33.26C279.108 34.6133 280.811 36.55 281.978 39.07C283.145 41.59 283.728 44.5767 283.728 48.03V50.13H256.778V46.35H279.388L278.198 47.26C278.198 43.62 277.381 40.7967 275.748 38.79C274.161 36.7833 271.805 35.78 268.678 35.78C265.271 35.78 262.635 36.97 260.768 39.35C258.901 41.6833 257.968 44.88 257.968 48.94V49.57C257.968 53.8633 259.018 57.1067 261.118 59.3C263.265 61.4933 266.228 62.59 270.008 62.59C272.108 62.59 274.068 62.2867 275.888 61.68C277.708 61.0733 279.458 60.07 281.138 58.67L283.238 63.08C281.651 64.5267 279.668 65.6467 277.288 66.44C274.955 67.2333 272.505 67.63 269.938 67.63ZM305.144 67.63C301.457 67.63 298.657 66.6267 296.744 64.62C294.877 62.5667 293.944 59.4867 293.944 55.38V36.69H287.084V31.79H293.944V22.34L300.314 20.59V31.79H310.254V36.69H300.314V54.82C300.314 57.5267 300.781 59.4633 301.714 60.63C302.694 61.75 304.094 62.31 305.914 62.31C306.847 62.31 307.641 62.24 308.294 62.1C308.994 61.9133 309.624 61.7033 310.184 61.47V66.72C309.484 67 308.667 67.21 307.734 67.35C306.847 67.5367 305.984 67.63 305.144 67.63ZM348.552 67.63C344.866 67.63 342.066 66.6267 340.152 64.62C338.286 62.5667 337.352 59.4867 337.352 55.38V36.69H330.492V31.79H337.352V22.34L343.722 20.59V31.79H353.662V36.69H343.722V54.82C343.722 57.5267 344.189 59.4633 345.122 60.63C346.102 61.75 347.502 62.31 349.322 62.31C350.256 62.31 351.049 62.24 351.702 62.1C352.402 61.9133 353.032 61.7033 353.592 61.47V66.72C352.892 67 352.076 67.21 351.142 67.35C350.256 67.5367 349.392 67.63 348.552 67.63ZM360.343 67V15.48H366.713V39.42H365.803C366.83 36.7133 368.487 34.66 370.773 33.26C373.06 31.86 375.697 31.16 378.683 31.16C382.93 31.16 386.057 32.3033 388.063 34.59C390.117 36.8767 391.143 40.33 391.143 44.95V67H384.773V45.3C384.773 42.1733 384.167 39.91 382.953 38.51C381.74 37.0633 379.757 36.34 377.003 36.34C373.923 36.34 371.427 37.2967 369.513 39.21C367.647 41.1233 366.713 43.6667 366.713 46.84V67H360.343ZM401.564 67V31.79H407.934V67H401.564ZM401.004 24.09V17.23H408.564V24.09H401.004ZM418.586 67V40.12C418.586 38.7667 418.539 37.39 418.446 35.99C418.352 34.59 418.212 33.19 418.026 31.79H424.186L424.886 39.35H424.046C425.119 36.69 426.776 34.66 429.016 33.26C431.256 31.86 433.869 31.16 436.856 31.16C441.009 31.16 444.136 32.3033 446.236 34.59C448.336 36.83 449.386 40.33 449.386 45.09V67H443.016V45.44C443.016 42.22 442.386 39.91 441.126 38.51C439.866 37.0633 437.906 36.34 435.246 36.34C432.072 36.34 429.552 37.2967 427.686 39.21C425.866 41.1233 424.956 43.7133 424.956 46.98V67H418.586ZM475.486 82.68C472.406 82.68 469.583 82.3067 467.016 81.56C464.45 80.8133 462.14 79.67 460.086 78.13L461.766 73.44C463.213 74.42 464.636 75.2133 466.036 75.82C467.436 76.4267 468.883 76.87 470.376 77.15C471.916 77.43 473.503 77.57 475.136 77.57C478.59 77.57 481.18 76.6833 482.906 74.91C484.633 73.1367 485.496 70.6167 485.496 67.35V57.48H486.196C485.45 60.14 483.91 62.2633 481.576 63.85C479.29 65.39 476.583 66.16 473.456 66.16C470.283 66.16 467.506 65.46 465.126 64.06C462.793 62.6133 460.973 60.5833 459.666 57.97C458.36 55.31 457.706 52.2067 457.706 48.66C457.706 45.0667 458.36 41.9633 459.666 39.35C460.973 36.7367 462.793 34.73 465.126 33.33C467.506 31.8833 470.283 31.16 473.456 31.16C476.583 31.16 479.29 31.93 481.576 33.47C483.863 35.01 485.38 37.1333 486.126 39.84L485.496 39.21L486.126 31.79H492.286C492.146 33.19 492.006 34.59 491.866 35.99C491.773 37.39 491.726 38.7667 491.726 40.12V66.58C491.726 71.8067 490.35 75.7967 487.596 78.55C484.89 81.3033 480.853 82.68 475.486 82.68ZM474.856 61.12C478.076 61.12 480.643 60.0233 482.556 57.83C484.47 55.6367 485.426 52.58 485.426 48.66C485.426 44.6933 484.47 41.6367 482.556 39.49C480.643 37.3433 478.076 36.27 474.856 36.27C471.59 36.27 468.976 37.3433 467.016 39.49C465.103 41.6367 464.146 44.6933 464.146 48.66C464.146 52.58 465.103 55.6367 467.016 57.83C468.976 60.0233 471.59 61.12 474.856 61.12ZM514.294 67.63C511.448 67.63 508.788 67.2567 506.314 66.51C503.888 65.7633 501.881 64.69 500.294 63.29L502.324 58.88C504.051 60.1867 505.941 61.19 507.994 61.89C510.094 62.5433 512.241 62.87 514.434 62.87C517.094 62.87 519.101 62.38 520.454 61.4C521.854 60.42 522.554 59.1133 522.554 57.48C522.554 56.1733 522.111 55.1233 521.224 54.33C520.338 53.5367 518.938 52.9533 517.024 52.58L510.374 51.25C507.388 50.55 505.124 49.43 503.584 47.89C502.091 46.3033 501.344 44.2733 501.344 41.8C501.344 39.7467 501.904 37.9267 503.024 36.34C504.144 34.7067 505.731 33.4467 507.784 32.56C509.884 31.6267 512.334 31.16 515.134 31.16C517.701 31.16 520.081 31.5333 522.274 32.28C524.514 33.0267 526.358 34.1233 527.804 35.57L525.704 39.84C524.258 38.58 522.624 37.6233 520.804 36.97C519.031 36.27 517.211 35.92 515.344 35.92C512.638 35.92 510.631 36.4567 509.324 37.53C508.018 38.5567 507.364 39.91 507.364 41.59C507.364 42.85 507.761 43.9 508.554 44.74C509.348 45.5333 510.631 46.14 512.404 46.56L519.054 47.89C522.181 48.5433 524.538 49.6167 526.124 51.11C527.711 52.6033 528.504 54.5867 528.504 57.06C528.504 59.2533 527.898 61.1433 526.684 62.73C525.518 64.3167 523.861 65.53 521.714 66.37C519.614 67.21 517.141 67.63 514.294 67.63ZM223.99 147.77C220.957 147.77 218.25 147.047 215.87 145.6C213.49 144.107 211.623 141.96 210.27 139.16C208.917 136.36 208.24 133.047 208.24 129.22C208.24 125.347 208.893 122.033 210.2 119.28C211.553 116.48 213.42 114.357 215.8 112.91C218.227 111.417 220.957 110.67 223.99 110.67C226.697 110.67 229.147 111.3 231.34 112.56C233.533 113.773 235.003 115.407 235.75 117.46H234.7V95.48H247.16V147H234.91V140.63H235.82C235.167 142.777 233.72 144.503 231.48 145.81C229.287 147.117 226.79 147.77 223.99 147.77ZM227.98 138.53C230.033 138.53 231.713 137.807 233.02 136.36C234.373 134.867 235.05 132.487 235.05 129.22C235.05 125.953 234.373 123.597 233.02 122.15C231.713 120.657 230.033 119.91 227.98 119.91C225.88 119.91 224.153 120.657 222.8 122.15C221.493 123.597 220.84 125.953 220.84 129.22C220.84 132.487 221.493 134.867 222.8 136.36C224.153 137.807 225.88 138.53 227.98 138.53ZM272.679 147.77C268.712 147.77 265.282 147.023 262.389 145.53C259.495 144.037 257.255 141.913 255.669 139.16C254.082 136.36 253.289 133.047 253.289 129.22C253.289 125.347 254.082 122.033 255.669 119.28C257.255 116.527 259.495 114.403 262.389 112.91C265.282 111.417 268.712 110.67 272.679 110.67C276.599 110.67 280.005 111.417 282.899 112.91C285.792 114.403 288.032 116.55 289.619 119.35C291.205 122.103 291.999 125.393 291.999 129.22C291.999 133 291.205 136.29 289.619 139.09C288.032 141.89 285.792 144.037 282.899 145.53C280.005 147.023 276.599 147.77 272.679 147.77ZM272.679 138.53C274.732 138.53 276.365 137.807 277.579 136.36C278.792 134.867 279.399 132.487 279.399 129.22C279.399 125.953 278.792 123.597 277.579 122.15C276.365 120.657 274.732 119.91 272.679 119.91C270.579 119.91 268.922 120.657 267.709 122.15C266.495 123.597 265.889 125.953 265.889 129.22C265.889 132.487 266.495 134.867 267.709 136.36C268.922 137.807 270.579 138.53 272.679 138.53ZM298.102 147V121.1C298.102 119.513 298.055 117.903 297.962 116.27C297.869 114.637 297.729 113.027 297.542 111.44H309.582L310.282 117.6H309.512C310.679 115.36 312.335 113.657 314.482 112.49C316.629 111.277 319.055 110.67 321.762 110.67C325.915 110.67 329.019 111.907 331.072 114.38C333.172 116.807 334.222 120.61 334.222 125.79V147H321.762V126.35C321.762 124.063 321.365 122.477 320.572 121.59C319.779 120.657 318.635 120.19 317.142 120.19C315.182 120.19 313.595 120.843 312.382 122.15C311.169 123.41 310.562 125.09 310.562 127.19V147H298.102ZM360.475 147.77C354.035 147.77 349.019 146.113 345.425 142.8C341.879 139.487 340.105 134.937 340.105 129.15C340.105 125.557 340.852 122.36 342.345 119.56C343.839 116.76 345.939 114.59 348.645 113.05C351.352 111.463 354.525 110.67 358.165 110.67C361.759 110.67 364.745 111.463 367.125 113.05C369.552 114.59 371.372 116.737 372.585 119.49C373.799 122.197 374.405 125.347 374.405 128.94V131.6H350.535V125.72H365.235L364.045 126.7C364.045 124.04 363.532 122.08 362.505 120.82C361.525 119.513 360.125 118.86 358.305 118.86C356.205 118.86 354.595 119.653 353.475 121.24C352.402 122.78 351.865 125.113 351.865 128.24V129.5C351.865 132.627 352.635 134.913 354.175 136.36C355.715 137.807 357.932 138.53 360.825 138.53C362.692 138.53 364.442 138.32 366.075 137.9C367.755 137.48 369.342 136.803 370.835 135.87L374.055 143.99C372.282 145.203 370.229 146.137 367.895 146.79C365.562 147.443 363.089 147.77 360.475 147.77Z" fill="black"/>
<defs>
<filter id="filter0_d_7_29" x="0.951769" y="0.475884" width="182.241" height="182.241" filterUnits="userSpaceOnUse" color-interpolation-filters="sRGB">
<feFlood flood-opacity="0" result="BackgroundImageFix"/>
<feColorMatrix in="SourceAlpha" type="matrix" values="0 0 0 0 0 0 0 0 0 0 0 0 0 0 0 0 0 0 127 0" result="hardAlpha"/>
<feOffset dx="7.57235" dy="10.0965"/>
<feGaussianBlur stdDeviation="6.31029"/>
<feComposite in2="hardAlpha" operator="out"/>
<feColorMatrix type="matrix" values="0 0 0 0 0 0 0 0 0 0 0 0 0 0 0 0 0 0 0.25 0"/>
<feBlend mode="normal" in2="BackgroundImageFix" result="effect1_dropShadow_7_29"/>
<feBlend mode="normal" in="SourceGraphic" in2="effect1_dropShadow_7_29" result="shape"/>
</filter>
<linearGradient id="paint0_linear_7_29" x1="19.1855" y1="3" x2="150.428" y2="152.181" gradientUnits="userSpaceOnUse">
<stop stop-color="#33BED1" stop-opacity="0.42"/>
<stop offset="0.973958" stop-color="#20ABE5" stop-opacity="0.984896"/>
<stop offset="1" stop-color="#20AAE6"/>
<stop offset="1" stop-color="#00B2FF"/>
</linearGradient>
</defs>
</svg>
